<svg width="70" height="15" viewBox="0 0 70 15" fill="none" xmlns="http://www.w3.org/2000/svg">
<g id="Group 229">
<path id="Star 1" d="M7 0.5L8.85152 4.9516L13.6574 5.33688L9.99583 8.4734L11.1145 13.1631L7 10.65L2.8855 13.1631L4.00417 8.4734L0.342604 5.33688L5.14848 4.9516L7 0.5Z" fill="#FFA432"/>
<path id="Star 2" d="M21 0.5L22.8515 4.9516L27.6574 5.33688L23.9958 8.4734L25.1145 13.1631L21 10.65L16.8855 13.1631L18.0042 8.4734L14.3426 5.33688L19.1485 4.9516L21 0.5Z" fill="#FFA432"/>
<path id="Star 3" d="M35 0.5L36.8515 4.9516L41.6574 5.33688L37.9958 8.4734L39.1145 13.1631L35 10.65L30.8855 13.1631L32.0042 8.4734L28.3426 5.33688L33.1485 4.9516L35 0.5Z" fill="#FFA432"/>
<path id="Star 4" d="M49 0.5L50.8515 4.9516L55.6574 5.33688L51.9958 8.4734L53.1145 13.1631L49 10.65L44.8855 13.1631L46.0042 8.4734L42.3426 5.33688L47.1485 4.9516L49 0.5Z" fill="#FFA432"/>
<path id="Star 5" d="M63 0.5L64.8515 4.9516L69.6574 5.33688L65.9958 8.4734L67.1145 13.1631L63 10.65L58.8855 13.1631L60.0042 8.4734L56.3426 5.33688L61.1485 4.9516L63 0.5Z" fill="#CFD9DE"/>
</g>
</svg>
