<svg width="193" height="22" viewBox="0 0 193 22" fill="none" xmlns="http://www.w3.org/2000/svg">
<path d="M7.14258 0.5625C7.61654 0.5625 8.02279 0.723307 8.36133 1.04492C8.69987 1.34961 8.8776 1.73893 8.89453 2.21289V4.42188H17.5273C18.0013 4.42188 18.4076 4.58268 18.7461 4.9043C19.0677 5.24284 19.2285 5.64909 19.2285 6.12305C19.2285 6.59701 19.0592 7.00326 18.7207 7.3418C18.3991 7.66341 18.0013 7.82422 17.5273 7.82422H8.89453V8.33203C8.8776 9.02604 8.91992 9.66927 9.02148 10.2617C9.13997 10.8372 9.41081 11.3535 9.83398 11.8105C10.2572 12.2676 10.7904 12.513 11.4336 12.5469H17.6289C18.1029 12.5638 18.4922 12.7415 18.7969 13.0801C19.1185 13.4186 19.2793 13.8249 19.2793 14.2988C19.2624 14.7559 19.0931 15.1452 18.7715 15.4668C18.4668 15.7715 18.0859 15.9323 17.6289 15.9492H10.5703C9.38542 15.8815 8.40365 15.4837 7.625 14.7559C6.86328 14.0111 6.31315 13.1055 5.97461 12.0391C5.65299 10.9727 5.48372 9.83854 5.4668 8.63672V7.82422H2.54688C2.07292 7.82422 1.67513 7.65495 1.35352 7.31641C1.01497 6.99479 0.845703 6.59701 0.845703 6.12305C0.845703 5.64909 1.00651 5.2513 1.32812 4.92969C1.66667 4.59115 2.07292 4.42188 2.54688 4.42188H5.4668V2.21289C5.48372 1.75586 5.65299 1.375 5.97461 1.07031C6.29622 0.748698 6.68555 0.579427 7.14258 0.5625ZM26.9727 15.9492C25.4831 15.8984 24.3574 15.5514 23.5957 14.9082C22.834 14.248 22.2839 13.5117 21.9453 12.6992C21.6068 11.8698 21.4375 11.0319 21.4375 10.1855C21.4375 9.30534 21.5983 8.45898 21.9199 7.64648C22.2585 6.81706 22.8086 6.08073 23.5703 5.4375C24.349 4.77734 25.3307 4.4388 26.5156 4.42188H34.7422C35.9271 4.4388 36.9004 4.77734 37.6621 5.4375C38.4408 6.08073 38.9909 6.81706 39.3125 7.64648C39.651 8.45898 39.8203 9.30534 39.8203 10.1855C39.8203 11.0319 39.651 11.8698 39.3125 12.6992C38.974 13.5117 38.4238 14.248 37.6621 14.9082C36.9004 15.5514 35.7747 15.8984 34.2852 15.9492H26.9727ZM26.4141 7.82422C26.0924 7.82422 25.8132 7.95964 25.5762 8.23047C25.3392 8.48438 25.1615 8.78906 25.043 9.14453C24.9414 9.48307 24.8906 9.82161 24.8906 10.1602C24.8906 10.5156 24.9414 10.8711 25.043 11.2266C25.1615 11.5651 25.3392 11.8698 25.5762 12.1406C25.8132 12.3945 26.0924 12.5299 26.4141 12.5469H34.8438C35.1654 12.5299 35.4447 12.3945 35.6816 12.1406C35.9186 11.8698 36.0879 11.5651 36.1895 11.2266C36.3079 10.8711 36.3672 10.5156 36.3672 10.1602C36.3672 9.82161 36.3079 9.48307 36.1895 9.14453C36.0879 8.78906 35.9186 8.48438 35.6816 8.23047C35.4447 7.95964 35.1654 7.82422 34.8438 7.82422H26.4141ZM50.8398 16.3809C49.9596 16.3809 49.0879 16.2793 48.2246 16.0762C47.3783 15.873 46.5658 15.5768 45.7871 15.1875C45.0085 14.7812 44.3229 14.248 43.7305 13.5879C43.138 12.9277 42.8164 12.1406 42.7656 11.2266V10.1602V5.81836C42.7656 5.3444 42.9349 4.95508 43.2734 4.65039C43.6289 4.32878 44.0436 4.16797 44.5176 4.16797C45.5332 4.2526 46.0833 4.80273 46.168 5.81836V6.93555V10.4395C46.2018 10.9642 46.3965 11.4043 46.752 11.7598C47.1243 12.0983 47.5306 12.3691 47.9707 12.5723C48.4277 12.7754 48.8932 12.9277 49.3672 13.0293C49.8581 13.1309 50.349 13.1816 50.8398 13.1816C51.3307 13.1816 51.8132 13.1309 52.2871 13.0293C52.778 12.9277 53.2435 12.7754 53.6836 12.5723C54.1406 12.3691 54.5469 12.0983 54.9023 11.7598C55.2747 11.4043 55.4779 10.9642 55.5117 10.4395V6.93555V5.81836C55.5117 5.3444 55.681 4.95508 56.0195 4.65039C56.375 4.32878 56.7897 4.16797 57.2637 4.16797C58.2793 4.2526 58.8379 4.80273 58.9395 5.81836V10.1602V11.2266C58.8887 12.1406 58.5586 12.9277 57.9492 13.5879C57.3568 14.248 56.6712 14.7812 55.8926 15.1875C55.1139 15.5768 54.293 15.873 53.4297 16.0762C52.5833 16.2793 51.7201 16.3809 50.8398 16.3809ZM62.7227 7.62109C63.0443 6.80859 63.5859 6.08073 64.3477 5.4375C65.1263 4.77734 66.1081 4.4388 67.293 4.42188H76.8398C77.3138 4.42188 77.7116 4.59115 78.0332 4.92969C78.3717 5.2513 78.541 5.64909 78.541 6.12305C78.541 6.59701 78.3717 7.00326 78.0332 7.3418C77.7116 7.66341 77.3138 7.82422 76.8398 7.82422H67.1914C66.8698 7.82422 66.5905 7.95964 66.3535 8.23047C66.1165 8.48438 65.9303 8.78906 65.7949 9.14453C65.6764 9.5 65.6172 9.83854 65.6172 10.1602V14.6035C65.5156 15.6191 64.957 16.1693 63.9414 16.2539C63.4674 16.2539 63.0527 16.1016 62.6973 15.7969C62.3587 15.4753 62.1895 15.0775 62.1895 14.6035V10.1855H62.2148C62.2148 9.30534 62.3841 8.45052 62.7227 7.62109ZM97.4824 2.21289V11.8867C97.4824 12.3099 97.7025 12.5299 98.1426 12.5469H107.029C107.351 12.5299 107.63 12.3945 107.867 12.1406C108.104 11.8698 108.273 11.5651 108.375 11.2266C108.493 10.8711 108.553 10.5156 108.553 10.1602C108.553 9.82161 108.493 9.48307 108.375 9.14453C108.273 8.78906 108.104 8.48438 107.867 8.23047C107.63 7.95964 107.351 7.82422 107.029 7.82422H100.529C100.055 7.82422 99.6491 7.66341 99.3105 7.3418C98.9889 7.00326 98.8281 6.59701 98.8281 6.12305C98.8281 5.64909 98.9974 5.2513 99.3359 4.92969C99.6576 4.59115 100.055 4.42188 100.529 4.42188H106.928C108.113 4.4388 109.086 4.77734 109.848 5.4375C110.626 6.08073 111.176 6.81706 111.498 7.64648C111.837 8.45898 112.006 9.30534 112.006 10.1855C112.006 11.0319 111.837 11.8698 111.498 12.6992C111.16 13.5117 110.609 14.248 109.848 14.9082C109.086 15.5514 107.96 15.8984 106.471 15.9492H95.8066C95.3327 15.9492 94.9264 15.7969 94.5879 15.4922C94.2493 15.1706 94.0716 14.7728 94.0547 14.2988V2.21289C94.0547 1.73893 94.224 1.34961 94.5625 1.04492C94.918 0.723307 95.3327 0.5625 95.8066 0.5625C96.8223 0.647135 97.3809 1.19727 97.4824 2.21289ZM122.848 16.3809C121.967 16.3809 121.096 16.2793 120.232 16.0762C119.386 15.873 118.574 15.5768 117.795 15.1875C117.016 14.7812 116.331 14.248 115.738 13.5879C115.146 12.9277 114.824 12.1406 114.773 11.2266V10.1602V5.81836C114.773 5.3444 114.943 4.95508 115.281 4.65039C115.637 4.32878 116.051 4.16797 116.525 4.16797C117.541 4.2526 118.091 4.80273 118.176 5.81836V6.93555V10.4395C118.21 10.9642 118.404 11.4043 118.76 11.7598C119.132 12.0983 119.538 12.3691 119.979 12.5723C120.436 12.7754 120.901 12.9277 121.375 13.0293C121.866 13.1309 122.357 13.1816 122.848 13.1816C123.339 13.1816 123.821 13.1309 124.295 13.0293C124.786 12.9277 125.251 12.7754 125.691 12.5723C126.148 12.3691 126.555 12.0983 126.91 11.7598C127.283 11.4043 127.486 10.9642 127.52 10.4395V6.93555V5.81836C127.52 5.3444 127.689 4.95508 128.027 4.65039C128.383 4.32878 128.798 4.16797 129.271 4.16797C130.287 4.2526 130.846 4.80273 130.947 5.81836V10.1602V11.2266C130.896 12.1406 130.566 12.9277 129.957 13.5879C129.365 14.248 128.679 14.7812 127.9 15.1875C127.122 15.5768 126.301 15.873 125.438 16.0762C124.591 16.2793 123.728 16.3809 122.848 16.3809ZM148.34 2.21289C148.441 1.19727 149 0.647135 150.016 0.5625C150.49 0.5625 150.896 0.723307 151.234 1.04492C151.59 1.34961 151.768 1.73893 151.768 2.21289V14.2988C151.751 14.7728 151.573 15.1706 151.234 15.4922C150.896 15.7969 150.49 15.9492 150.016 15.9492H139.352C137.862 15.8984 136.736 15.5514 135.975 14.9082C135.213 14.248 134.663 13.5117 134.324 12.6992C133.986 11.8698 133.816 11.0319 133.816 10.1855C133.816 9.30534 133.977 8.45898 134.299 7.64648C134.637 6.81706 135.188 6.08073 135.949 5.4375C136.728 4.77734 137.71 4.4388 138.895 4.42188H145.293C145.767 4.42188 146.165 4.59115 146.486 4.92969C146.825 5.2513 146.994 5.64909 146.994 6.12305C146.994 6.59701 146.825 7.00326 146.486 7.3418C146.165 7.66341 145.767 7.82422 145.293 7.82422H138.793C138.471 7.82422 138.192 7.95964 137.955 8.23047C137.718 8.48438 137.54 8.78906 137.422 9.14453C137.32 9.48307 137.27 9.82161 137.27 10.1602C137.27 10.5156 137.32 10.8711 137.422 11.2266C137.54 11.5651 137.718 11.8698 137.955 12.1406C138.192 12.3945 138.471 12.5299 138.793 12.5469H147.68C148.12 12.5299 148.34 12.3099 148.34 11.8867V2.21289ZM169.262 2.21289C169.363 1.19727 169.922 0.647135 170.938 0.5625C171.411 0.5625 171.818 0.723307 172.156 1.04492C172.512 1.34961 172.689 1.73893 172.689 2.21289V14.2988C172.673 14.7728 172.495 15.1706 172.156 15.4922C171.818 15.7969 171.411 15.9492 170.938 15.9492H160.273C158.784 15.8984 157.658 15.5514 156.896 14.9082C156.135 14.248 155.585 13.5117 155.246 12.6992C154.908 11.8698 154.738 11.0319 154.738 10.1855C154.738 9.30534 154.899 8.45898 155.221 7.64648C155.559 6.81706 156.109 6.08073 156.871 5.4375C157.65 4.77734 158.632 4.4388 159.816 4.42188H166.215C166.689 4.42188 167.087 4.59115 167.408 4.92969C167.747 5.2513 167.916 5.64909 167.916 6.12305C167.916 6.59701 167.747 7.00326 167.408 7.3418C167.087 7.66341 166.689 7.82422 166.215 7.82422H159.715C159.393 7.82422 159.114 7.95964 158.877 8.23047C158.64 8.48438 158.462 8.78906 158.344 9.14453C158.242 9.48307 158.191 9.82161 158.191 10.1602C158.191 10.5156 158.242 10.8711 158.344 11.2266C158.462 11.5651 158.64 11.8698 158.877 12.1406C159.114 12.3945 159.393 12.5299 159.715 12.5469H168.602C169.042 12.5299 169.262 12.3099 169.262 11.8867V2.21289ZM177.742 4.11719C178.216 4.11719 178.622 4.27799 178.961 4.59961C179.299 4.9043 179.477 5.29362 179.494 5.76758V8.33203C179.477 9.02604 179.52 9.66927 179.621 10.2617C179.74 10.8372 180.01 11.3535 180.434 11.8105C180.857 12.2676 181.39 12.513 182.033 12.5469H188.812V5.81836C188.812 5.3444 188.982 4.95508 189.32 4.65039C189.676 4.32878 190.09 4.16797 190.564 4.16797C191.58 4.2526 192.139 4.80273 192.24 5.81836V14.0957C192.24 15.4499 192.054 16.7279 191.682 17.9297C191.343 18.9961 190.785 19.8932 190.006 20.6211C189.244 21.3659 188.271 21.7721 187.086 21.8398H178.301C177.844 21.8229 177.454 21.6536 177.133 21.332C176.828 21.0273 176.667 20.6465 176.65 20.1895C176.65 19.7155 176.803 19.3092 177.107 18.9707C177.429 18.6322 177.827 18.4544 178.301 18.4375H186.223C186.866 18.4036 187.399 18.1582 187.822 17.7012C188.245 17.2441 188.516 16.7109 188.635 16.1016C188.652 16.0508 188.66 16 188.66 15.9492H181.17C179.985 15.8815 179.003 15.4837 178.225 14.7559C177.463 14.0111 176.913 13.1055 176.574 12.0391C176.253 10.9727 176.083 9.83854 176.066 8.63672V5.76758C176.083 5.31055 176.253 4.92969 176.574 4.625C176.896 4.30339 177.285 4.13411 177.742 4.11719Z" fill="#495560"/>
</svg>
